<?xml version="1.0" encoding="UTF-8" standalone="no"?>
<svg
   xmlns:dc="http://purl.org/dc/elements/1.1/"
   xmlns:cc="http://creativecommons.org/ns#"
   xmlns:rdf="http://www.w3.org/1999/02/22-rdf-syntax-ns#"
   xmlns:svg="http://www.w3.org/2000/svg"
   xmlns="http://www.w3.org/2000/svg"
   xmlns:sodipodi="http://sodipodi.sourceforge.net/DTD/sodipodi-0.dtd"
   xmlns:inkscape="http://www.inkscape.org/namespaces/inkscape"
   width="800px"
   height="800px"
   viewBox="0 0 24 24"
   fill="none"
   version="1.1"
   id="svg6"
   sodipodi:docname="kanban-ico.svg"
   inkscape:version="1.0.2 (e86c870879, 2021-01-15)">
  <metadata
     id="metadata12">
    <rdf:RDF>
      <cc:Work
         rdf:about="">
        <dc:format>image/svg+xml</dc:format>
        <dc:type
           rdf:resource="http://purl.org/dc/dcmitype/StillImage" />
      </cc:Work>
    </rdf:RDF>
  </metadata>
  <defs
     id="defs10" />
  <sodipodi:namedview
     pagecolor="#ffffff"
     bordercolor="#666666"
     borderopacity="1"
     objecttolerance="10"
     gridtolerance="10"
     guidetolerance="10"
     inkscape:pageopacity="0"
     inkscape:pageshadow="2"
     inkscape:window-width="1366"
     inkscape:window-height="705"
     id="namedview8"
     showgrid="false"
     inkscape:zoom="0.23776466"
     inkscape:cx="1063.6184"
     inkscape:cy="896.08523"
     inkscape:window-x="-8"
     inkscape:window-y="-8"
     inkscape:window-maximized="1"
     inkscape:current-layer="svg6" />
  <path
     d="M10.5 19.9V4.1C10.5 2.6 9.86 2 8.27 2H4.23C2.64 2 2 2.6 2 4.1V19.9C2 21.4 2.64 22 4.23 22H8.27C9.86 22 10.5 21.4 10.5 19.9Z"
     stroke="#292D32"
     stroke-width="1.5"
     stroke-linecap="round"
     stroke-linejoin="round"
     id="path2"
     style="stroke:#d96941;stroke-opacity:1" />
  <path
     d="M22 12.9V4.1C22 2.6 21.36 2 19.77 2H15.73C14.14 2 13.5 2.6 13.5 4.1V12.9C13.5 14.4 14.14 15 15.73 15H19.77C21.36 15 22 14.4 22 12.9Z"
     stroke="#292D32"
     stroke-width="1.5"
     stroke-linecap="round"
     stroke-linejoin="round"
     id="path4"
     style="stroke:#13f7f4;stroke-opacity:1" />
</svg>
